<svg version="1.1" xmlns="http://www.w3.org/2000/svg" xmlns:xlink="http://www.w3.org/1999/xlink" width="500px" height="500px" viewBox="0,0,256,256"><g fill="none" fill-rule="nonzero" stroke="none" stroke-width="1" stroke-linecap="butt" stroke-linejoin="miter" stroke-miterlimit="10" stroke-dasharray="" stroke-dashoffset="0" font-family="none" font-weight="none" font-size="none" text-anchor="none" style="mix-blend-mode: normal"><g transform="translate(0,4.46464) scale(0.512,0.512)"><g id="freepik--background-complete--inject-4"><rect x="0" y="382.4" width="500" height="0.25" fill="#ebebeb"></rect><rect x="416.78" y="398.49" width="33.12" height="0.25" fill="#ebebeb"></rect><rect x="322.53" y="401.21" width="8.69" height="0.25" fill="#ebebeb"></rect><rect x="396.59" y="389.21" width="19.19" height="0.25" fill="#ebebeb"></rect><rect x="52.46" y="390.89" width="43.19" height="0.25" fill="#ebebeb"></rect><rect x="104.56" y="390.89" width="6.33" height="0.25" fill="#ebebeb"></rect><rect x="131.47" y="395.11" width="93.68" height="0.25" fill="#ebebeb"></rect><path d="M237,337.8h-193.09c-3.14964,-0.00552 -5.7,-2.56036 -5.7,-5.71v-271.43c0.02741,-3.13011 2.56978,-5.65464 5.7,-5.66h193.09c3.15355,0 5.71,2.55645 5.71,5.71v271.38c0,3.15355 -2.55645,5.71 -5.71,5.71zM43.91,55.2c-3.01157,0.00552 -5.45001,2.44843 -5.45,5.46v271.43c-0.00001,3.01157 2.43843,5.45448 5.45,5.46h193.09c3.01319,-0.0055 5.4545,-2.44681 5.46,-5.46v-271.43c-0.0055,-3.01319 -2.44681,-5.4545 -5.46,-5.46z" fill="#ebebeb"></path><path d="M453.31,337.8h-193.1c-3.15126,-0.0055 -5.7045,-2.55874 -5.71,-5.71v-271.43c0.03285,-3.13172 2.57811,-5.6547 5.71,-5.66h193.1c3.12632,0.01083 5.66264,2.53378 5.69,5.66v271.43c0.00002,3.14575 -2.54427,5.69898 -5.69,5.71zM260.21,55.2c-3.01319,0.0055 -5.4545,2.44681 -5.46,5.46v271.43c0.0055,3.01319 2.44681,5.4545 5.46,5.46h193.1c3.01319,-0.0055 5.4545,-2.44681 5.46,-5.46v-271.43c-0.0055,-3.01319 -2.44681,-5.4545 -5.46,-5.46z" fill="#ebebeb"></path><path d="M316.54,282.45h120.15c-0.00114,4.41 -3.47422,8.03733 -7.88,8.23c-12.91,0.59 -32.78,2.63 -39.07,9.77c-11.75,13.32 -10.61,60.1 3.46,70.93c4.4,3.4 17.26,10.14 17.26,10.14h-67.69c0,0 12,-6.88 16.19,-10.14c14,-10.92 14.39,-57.67 2.59,-70.93c-6.05,-6.8 -24.67,-9 -37.16,-9.69c-4.40892,-0.24443 -7.85677,-3.89431 -7.85,-8.31z" fill="#f5f5f5"></path><path d="M421.8,291.12c-12.2,1 -26.82,3.39 -32.06,9.33c-1.71097,2.05192 -3.0633,4.37793 -4,6.88h-20.15c-0.94946,-2.49601 -2.30062,-4.81999 -4,-6.88c-5.26,-5.91 -20,-8.34 -32,-9.33z" fill="#e6e6e6"></path><path d="M367.72,282.51l1.64,-18.67h-23.69l-1.63,18.67z" fill="#ebebeb"></path><path d="M367.72,282.51l1.64,-18.67h1.27l-1.63,18.67z" fill="#e0e0e0"></path><path d="M365.47,280.61l1.3,-14.87h-18.85l-1.3,14.87z" fill="#f0f0f0"></path><path d="M364.03,279.38l1.08,-12.41h-15.74l-1.09,12.41z" fill="#fafafa"></path><path d="M375.4,282.45h23.79l-2.64,-30.17h-23.79z" fill="#e6e6e6"></path><path d="M375.4,282.45h-1.13l-2.64,-30.17h1.13z" fill="#e0e0e0"></path><path d="M377.56,279.38h18.94l-2.1,-24.02h-18.94z" fill="#f0f0f0"></path><path d="M378.94,277.4h15.83l-1.76,-20.06h-15.82z" fill="#fafafa"></path><path d="M386.94,266.36v0c-0.51616,0.51907 -1.21798,0.81093 -1.95,0.81093c-0.73202,0 -1.43384,-0.29186 -1.95,-0.81093v0c-1.06906,-1.07632 -1.06906,-2.81368 0,-3.89v0c1.07974,-1.07022 2.82026,-1.07022 3.9,0v0c1.06906,1.07632 1.06906,2.81368 0,3.89z" fill="#ebebeb"></path><path d="M385.77,269.74v0c0.37591,-0.38172 0.88926,-0.59666 1.425,-0.59666c0.53574,0 1.04909,0.21494 1.425,0.59666v0c0.59165,0.57005 0.7745,1.44395 0.46101,2.20338c-0.31349,0.75943 -1.05953,1.2499 -1.88101,1.23662v0c-0.82332,0.01751 -1.57321,-0.47142 -1.88931,-1.23184c-0.3161,-0.76042 -0.1338,-1.63686 0.45931,-2.20816z" fill="#f0f0f0"></path><rect x="-193.91" y="-248.06" transform="rotate(180)" width="112.19" height="124.08" fill="#e0e0e0"></rect><rect x="-194.5" y="-248.06" transform="rotate(180)" width="116.36" height="124.08" fill="#f0f0f0"></rect><rect x="-189.77" y="-242.35" transform="rotate(180)" width="106.7" height="114.42" fill="#ffffff"></rect><rect x="-86.15" y="-242.35" transform="rotate(180)" width="3.09" height="114.42" fill="#e0e0e0"></rect><rect x="-213.3" y="85.82" transform="rotate(-90)" width="3.09" height="104.22" fill="#e0e0e0"></rect><rect x="-191.42" y="-210.21" transform="rotate(180)" width="108.36" height="5.18" fill="#f0f0f0"></rect><path d="M378.39,145.22c0,0 1,-6.6 -3.81,-10.83c-4.81,-4.23 -4.39,-6.75 -3,-7.08c1.39,-0.33 2.64,3.91 4.76,5.07c0,0 0.07,-6 -2.08,-8.25c-2.15,-2.25 -3.28,-7.94 -1.23,-8c2.05,-0.06 2.25,3.4 2.68,5.88c0.43,2.48 2.7,6 2.7,6c0,0 0.44,-5.4 1.83,-7.62c1.39,-2.22 -2.31,-7.3 -0.88,-9.52c1.43,-2.22 4,2 3.75,6.77c-0.25,4.77 -3.38,9.84 -2.64,14.81c0,0 1.4,-3.49 2.65,-3.81c1.25,-0.32 2.53,-2.62 3.37,-3.48c0.84,-0.86 1.91,2.11 0,4.86c-1.91,2.75 -6.76,10.11 -6,16.05z" fill="#e6e6e6"></path><path d="M375.51,142.22l-1.58,9.89c-0.24308,1.46126 0.17431,2.95508 1.13962,4.07871c0.96531,1.12363 2.37917,1.76137 3.86038,1.74129h1.68c1.4812,0.02008 2.89506,-0.61767 3.86038,-1.74129c0.96531,-1.12363 1.3827,-2.61745 1.13962,-4.07871l-1.61,-9.89z" fill="#f5f5f5"></path><rect x="287.94" y="154.28" width="111.4" height="5.72" fill="#e6e6e6"></rect><rect x="293.07" y="133.18" width="4.91" height="21.1" fill="#f0f0f0"></rect><rect x="316.8" y="133.18" width="4.91" height="21.1" fill="#f0f0f0"></rect><rect x="316.14656" y="189.94064" transform="rotate(-9.78)" width="4.91" height="21.1" fill="#f0f0f0"></rect><rect x="299.15" y="135.96" width="4.91" height="18.32" fill="#f0f0f0"></rect><rect x="310.43" y="135.96" width="4.91" height="18.32" fill="#f0f0f0"></rect><rect x="338.91" y="135.96" width="4.91" height="18.32" fill="#f0f0f0"></rect><rect x="286.07299" y="203.28268" transform="rotate(-12.53)" width="4.91" height="18.32" fill="#f0f0f0"></rect><rect x="305.85" y="132.13" width="2.45" height="22.15" fill="#f0f0f0"></rect><rect x="335.04" y="132.13" width="2.45" height="22.15" fill="#f0f0f0"></rect><rect x="-399.35" y="-202.73" transform="rotate(180)" width="111.4" height="5.72" fill="#e6e6e6"></rect><rect x="-394.22" y="-197.01" transform="rotate(180)" width="4.91" height="21.1" fill="#f0f0f0"></rect><rect x="-370.49" y="-197.01" transform="rotate(180)" width="4.91" height="21.1" fill="#f0f0f0"></rect><rect x="-368.4238" y="-136.38989" transform="rotate(-170.22)" width="4.91" height="21.1" fill="#f0f0f0"></rect><rect x="-388.14" y="-197.01" transform="rotate(180)" width="4.91" height="18.32" fill="#f0f0f0"></rect><rect x="-376.86" y="-197.01" transform="rotate(180)" width="4.91" height="18.32" fill="#f0f0f0"></rect><rect x="-348.38" y="-197.01" transform="rotate(180)" width="4.91" height="18.32" fill="#f0f0f0"></rect><rect x="-394.12782" y="-114.20125" transform="rotate(-167.47)" width="4.91" height="18.32" fill="#f0f0f0"></rect><rect x="-381.44" y="-197.01" transform="rotate(180)" width="2.45" height="22.15" fill="#f0f0f0"></rect><rect x="-352.25" y="-197.01" transform="rotate(180)" width="2.45" height="22.15" fill="#f0f0f0"></rect><rect x="-322.55" y="-196.82" transform="rotate(180)" width="23.91" height="16.51" fill="#f5f5f5"></rect></g><g id="freepik--Shadow--inject-4" fill="#f5f5f5"><ellipse cx="250" cy="416.24" rx="193.89" ry="11.32" id="freepik--path--inject-4"></ellipse></g><g id="freepik--Plant--inject-4"><path d="M332.47,391.23c0,0 -5,-10.8 0.7,-21.46c5.7,-10.66 7.3,-13.16 3.7,-15.34c-3.6,-2.18 -5.27,8.57 -5.27,8.57c-1.79116,-4.83593 -1.977,-10.12019 -0.53,-15.07c2.51,-7.71 4.09,-20.26 0.66,-21.61c-3.43,-1.35 -0.65,15.66 -3.63,21.46c-1.51667,-4.06852 -2.49496,-8.31786 -2.91,-12.64c-0.41,-6.19 0.23,-16.08 -2.48,-18.61c-2.71,-2.53 -4.44,-0.79 -1.78,12.88c1.59877,8.1608 2.48212,16.44557 2.64,24.76c0,0 -5.87,-17.92 -9.82,-18.44c-3.95,-0.52 -3.94,5.28 -0.56,10.31c3.38,5.03 9.89,14.05 10.95,18.69c0,0 -6.45,-13.48 -12.25,-9.35c-5.8,4.13 5.05,12.28 9.89,15.22c4.84,2.94 8.2,21.39 8.2,21.39z" fill="#f77c3e"></path><path d="M332.47,391.23c0,0 -5,-10.8 0.7,-21.46c5.7,-10.66 7.3,-13.16 3.7,-15.34c-3.6,-2.18 -5.27,8.57 -5.27,8.57c-1.79116,-4.83593 -1.977,-10.12019 -0.53,-15.07c2.51,-7.71 4.09,-20.26 0.66,-21.61c-3.43,-1.35 -0.65,15.66 -3.63,21.46c-1.51667,-4.06852 -2.49496,-8.31786 -2.91,-12.64c-0.41,-6.19 0.23,-16.08 -2.48,-18.61c-2.71,-2.53 -4.44,-0.79 -1.78,12.88c1.59877,8.1608 2.48212,16.44557 2.64,24.76c0,0 -5.87,-17.92 -9.82,-18.44c-3.95,-0.52 -3.94,5.28 -0.56,10.31c3.38,5.03 9.89,14.05 10.95,18.69c0,0 -6.45,-13.48 -12.25,-9.35c-5.8,4.13 5.05,12.28 9.89,15.22c4.84,2.94 8.2,21.39 8.2,21.39z" fill="#000000" opacity="0.2"></path><path d="M328.56,395.66c0,0 4.82,-10.88 -1,-21.44c-5.82,-10.56 -7.46,-13.06 -3.88,-15.29c3.58,-2.23 5.36,8.44 5.36,8.44c1.73432,-4.85842 1.85705,-10.14635 0.35,-15.08c-2.6,-7.66 -4.33,-20.19 -0.91,-21.59c3.42,-1.4 0.84,15.65 3.88,21.4c1.47163,-4.09092 2.39956,-8.35741 2.76,-12.69c0.34,-6.19 -0.42,-16.07 2.26,-18.64c2.68,-2.57 4.43,-0.85 1.93,12.85c-1.50309,8.18242 -2.28609,16.48084 -2.34,24.8c0,0 5.66,-18 9.6,-18.58c3.94,-0.58 4,5.22 0.68,10.3c-3.32,5.08 -9.71,14.2 -10.73,18.85c0,0 6.29,-13.58 12.14,-9.53c5.85,4.05 -4.9,12.35 -9.7,15.37c-4.8,3.02 -7.94,21.51 -7.94,21.51z" fill="#f77c3e"></path><path d="M350.8,387.91h-39.84l3.23,28.51h33.39z" fill="#263238"></path></g><g id="freepik--Window--inject-4"><rect x="216.01" y="104.4" width="215.52" height="191.98" rx="2.48" ry="0" fill="#000000" opacity="0.2"></rect><rect x="207.86" y="100.85" width="215.52" height="191.98" rx="2.48" ry="0" fill="#f77c3e"></rect><path d="M207.86,118v172.36c-0.10651,1.22932 0.77602,2.32366 2,2.48h211.46c1.24809,-0.12654 2.16458,-1.22987 2.06,-2.48v-172.36z" fill="#ffffff" opacity="0.6"></path><rect x="210.41" y="128.11" width="210.41" height="152.27" fill="#ffffff"></rect><ellipse cx="416.34" cy="108.9" rx="3.16" ry="3.81" fill="#ffffff" opacity="0.6"></ellipse><ellipse cx="405.99" cy="108.9" rx="3.16" ry="3.81" fill="#ffffff" opacity="0.6"></ellipse><path d="M398.79,108.9c0,2.1 -1.41,3.8 -3.16,3.8c-1.75,0 -3.15,-1.7 -3.15,-3.8c0,-2.1 1.41,-3.81 3.15,-3.81c1.74,0 3.16,1.7 3.16,3.81z" fill="#ffffff" opacity="0.6"></path><path d="M255.24,145.89v39.27l-10.1,12.18h-22.37v-51.45z" fill="#f77c3e"></path><path d="M255.24,145.89v39.27l-10.1,12.18h-22.37v-51.45z" fill="#ffffff" opacity="0.7"></path><path d="M255.24,185.16l-10.1,12.18v-12.18z" fill="#f77c3e" opacity="0.3"></path><rect x="227.81" y="153.31" width="22.4" height="1.47" fill="#f77c3e" opacity="0.3"></rect><rect x="227.81" y="158.89" width="22.4" height="1.47" fill="#f77c3e" opacity="0.3"></rect><rect x="227.81" y="164.48" width="22.4" height="1.48" fill="#f77c3e" opacity="0.3"></rect><rect x="227.81" y="170.07" width="22.4" height="1.47" fill="#f77c3e" opacity="0.3"></rect><rect x="227.81" y="175.66" width="16.61" height="1.48" fill="#f77c3e" opacity="0.3"></rect><path d="M306.74,145.89v39.27l-10.1,12.18h-22.37v-51.45z" fill="#f77c3e"></path><path d="M306.74,145.89v39.27l-10.1,12.18h-22.37v-51.45z" fill="#ffffff" opacity="0.7"></path><path d="M306.74,185.16l-10.1,12.18v-12.18z" fill="#f77c3e" opacity="0.3"></path><rect x="279.3" y="153.31" width="22.4" height="1.47" fill="#f77c3e" opacity="0.3"></rect><rect x="279.3" y="158.89" width="22.4" height="1.47" fill="#f77c3e" opacity="0.3"></rect><rect x="279.3" y="164.48" width="22.4" height="1.48" fill="#f77c3e" opacity="0.3"></rect><rect x="279.3" y="170.07" width="22.4" height="1.47" fill="#f77c3e" opacity="0.3"></rect><rect x="279.3" y="175.66" width="16.61" height="1.48" fill="#f77c3e" opacity="0.3"></rect><path d="M358.24,145.89v39.27l-10.1,12.18h-22.37v-51.45z" fill="#f77c3e"></path><path d="M358.24,145.89v39.27l-10.1,12.18h-22.37v-51.45z" fill="#ffffff" opacity="0.7"></path><path d="M358.24,185.16l-10.1,12.18v-12.18z" fill="#f77c3e" opacity="0.3"></path><rect x="330.8" y="153.31" width="22.4" height="1.47" fill="#f77c3e" opacity="0.3"></rect><rect x="330.8" y="158.89" width="22.4" height="1.47" fill="#f77c3e" opacity="0.3"></rect><rect x="330.8" y="164.48" width="22.4" height="1.48" fill="#f77c3e" opacity="0.3"></rect><rect x="330.8" y="170.07" width="22.4" height="1.47" fill="#f77c3e" opacity="0.3"></rect><rect x="330.8" y="175.66" width="16.61" height="1.48" fill="#f77c3e" opacity="0.3"></rect><path d="M409.74,145.89v39.27l-10.11,12.18h-22.36v-51.45z" fill="#f77c3e"></path><path d="M409.74,145.89v39.27l-10.11,12.18h-22.36v-51.45z" fill="#ffffff" opacity="0.7"></path><path d="M409.74,185.16l-10.11,12.18v-12.18z" fill="#f77c3e" opacity="0.3"></path><rect x="382.3" y="153.31" width="22.4" height="1.47" fill="#f77c3e" opacity="0.3"></rect><rect x="382.3" y="158.89" width="22.4" height="1.47" fill="#f77c3e" opacity="0.3"></rect><rect x="382.3" y="164.48" width="22.4" height="1.48" fill="#f77c3e" opacity="0.3"></rect><rect x="382.3" y="170.07" width="22.4" height="1.47" fill="#f77c3e" opacity="0.3"></rect><rect x="382.3" y="175.66" width="16.61" height="1.48" fill="#f77c3e" opacity="0.3"></rect><path d="M255.24,213.89v39.27l-10.1,12.18h-22.37v-51.45z" fill="#f77c3e"></path><path d="M255.24,213.89v39.27l-10.1,12.18h-22.37v-51.45z" fill="#ffffff" opacity="0.7"></path><path d="M255.24,253.16l-10.1,12.18v-12.18z" fill="#f77c3e" opacity="0.3"></path><rect x="227.81" y="221.31" width="22.4" height="1.47" fill="#f77c3e" opacity="0.3"></rect><rect x="227.81" y="226.89" width="22.4" height="1.47" fill="#f77c3e" opacity="0.3"></rect><rect x="227.81" y="232.48" width="22.4" height="1.48" fill="#f77c3e" opacity="0.3"></rect><rect x="227.81" y="238.07" width="22.4" height="1.48" fill="#f77c3e" opacity="0.3"></rect><rect x="227.81" y="243.66" width="16.61" height="1.47" fill="#f77c3e" opacity="0.3"></rect><path d="M306.74,213.89v39.27l-10.1,12.18h-22.37v-51.45z" fill="#f77c3e"></path><path d="M306.74,213.89v39.27l-10.1,12.18h-22.37v-51.45z" fill="#ffffff" opacity="0.7"></path><path d="M306.74,253.16l-10.1,12.18v-12.18z" fill="#f77c3e" opacity="0.3"></path><rect x="279.3" y="221.31" width="22.4" height="1.47" fill="#f77c3e" opacity="0.3"></rect><rect x="279.3" y="226.89" width="22.4" height="1.47" fill="#f77c3e" opacity="0.3"></rect><rect x="279.3" y="232.48" width="22.4" height="1.48" fill="#f77c3e" opacity="0.3"></rect><rect x="279.3" y="238.07" width="22.4" height="1.48" fill="#f77c3e" opacity="0.3"></rect><rect x="279.3" y="243.66" width="16.61" height="1.47" fill="#f77c3e" opacity="0.3"></rect><path d="M358.24,213.89v39.27l-10.1,12.18h-22.37v-51.45z" fill="#f77c3e"></path><path d="M358.24,213.89v39.27l-10.1,12.18h-22.37v-51.45z" fill="#ffffff" opacity="0.7"></path><path d="M358.24,253.16l-10.1,12.18v-12.18z" fill="#f77c3e" opacity="0.3"></path><rect x="330.8" y="221.31" width="22.4" height="1.47" fill="#f77c3e" opacity="0.3"></rect><rect x="330.8" y="226.89" width="22.4" height="1.47" fill="#f77c3e" opacity="0.3"></rect><rect x="330.8" y="232.48" width="22.4" height="1.48" fill="#f77c3e" opacity="0.3"></rect><rect x="330.8" y="238.07" width="22.4" height="1.48" fill="#f77c3e" opacity="0.3"></rect><rect x="330.8" y="243.66" width="16.61" height="1.47" fill="#f77c3e" opacity="0.3"></rect><path d="M409.74,213.89v39.27l-10.11,12.18h-22.36v-51.45z" fill="#f77c3e"></path><path d="M409.74,213.89v39.27l-10.11,12.18h-22.36v-51.45z" fill="#ffffff" opacity="0.7"></path><path d="M409.74,253.16l-10.11,12.18v-12.18z" fill="#f77c3e" opacity="0.3"></path><rect x="382.3" y="221.31" width="22.4" height="1.47" fill="#f77c3e" opacity="0.3"></rect><rect x="382.3" y="226.89" width="22.4" height="1.47" fill="#f77c3e" opacity="0.3"></rect><rect x="382.3" y="232.48" width="22.4" height="1.48" fill="#f77c3e" opacity="0.3"></rect><rect x="382.3" y="238.07" width="22.4" height="1.48" fill="#f77c3e" opacity="0.3"></rect><rect x="382.3" y="243.66" width="16.61" height="1.47" fill="#f77c3e" opacity="0.3"></rect></g><g id="freepik--Padlock--inject-4"><rect x="273.78" y="181.35" width="60.53" height="47.54" rx="4.35" ry="0" fill="#000000" opacity="0.1"></rect><g fill="#000000" opacity="0.1"><path d="M326.25,179.14h-6v-6.49c0,-8.53832 -6.92168,-15.46 -15.46,-15.46c-8.53832,0 -15.46,6.92168 -15.46,15.46v6.49h-6v-6.49c0,-11.85203 9.60797,-21.46 21.46,-21.46c11.85203,0 21.46,9.60797 21.46,21.46z"></path></g><rect x="248.78" y="179.35" width="60.53" height="47.54" rx="4.35" ry="0" fill="#263238"></rect><rect x="248.78" y="179.35" width="49.58" height="47.54" rx="4.35" ry="0" fill="#ffffff" opacity="0.2"></rect><path d="M276.61,197.19c0,-3.28 -2,-5.94 -4.46,-5.94c-2.46,0 -4.45,2.66 -4.45,5.94c-0.12075,2.20041 0.94315,4.29771 2.79,5.5l-0.83,12.4h5l-0.82,-12.4c1.83605,-1.20998 2.89089,-3.30443 2.77,-5.5z" fill="#263238"></path><path d="M301.25,177.14h-6v-6.49c0,-8.53832 -6.92168,-15.46 -15.46,-15.46c-8.53832,0 -15.46,6.92168 -15.46,15.46v6.49h-6v-6.49c0,-11.85203 9.60797,-21.46 21.46,-21.46c11.85203,0 21.46,9.60797 21.46,21.46z" fill="#263238"></path><g fill="#ffffff" opacity="0.4"><path d="M301.25,177.14h-6v-6.49c0,-8.53832 -6.92168,-15.46 -15.46,-15.46c-8.53832,0 -15.46,6.92168 -15.46,15.46v6.49h-6v-6.49c0,-11.85203 9.60797,-21.46 21.46,-21.46c11.85203,0 21.46,9.60797 21.46,21.46z"></path></g><path d="M301.25,170.65v6.49h-4.07v-7.23c0,-5.19998 -2.06637,-10.18683 -5.74424,-13.86283c-3.67788,-3.676 -8.66578,-5.73982 -13.86576,-5.73717c-3.93479,-0.01238 -7.77707,1.1927 -11,3.45c6.45846,-5.06455 15.24144,-5.99766 22.61984,-2.40316c7.37841,3.5945 12.05732,11.08577 12.05016,19.29316z" fill="#ffffff" opacity="0.2"></path></g><g id="freepik--Desk--inject-4"><path d="M216.46,285.63h-24.24v-0.93h5.47c0.75894,-0.00721 1.40553,-0.55303 1.54,-1.3l2.45,-14.58l0.48,-2.87h8.3l7.43,17.52c0.20536,0.4797 0.15557,1.03054 -0.13248,1.46565c-0.28805,0.4351 -0.7757,0.69606 -1.29752,0.69435z" fill="#f77c3e"></path><path d="M216.46,285.63h-24.24v-0.93h5.47c0.75894,-0.00721 1.40553,-0.55303 1.54,-1.3l2.45,-14.58l0.48,-2.87h8.3l7.43,17.52c0.20536,0.4797 0.15557,1.03054 -0.13248,1.46565c-0.28805,0.4351 -0.7757,0.69606 -1.29752,0.69435z" fill="#ffffff" opacity="0.4"></path><path d="M216.49,284.7h-18.8c0.75894,-0.00721 1.40553,-0.55303 1.54,-1.3l2.45,-14.58h8.7l6.62,15.11c0.07464,0.171 0.0575,0.36818 -0.04553,0.52374c-0.10303,0.15556 -0.2779,0.24827 -0.46447,0.24626z" fill="#000000" opacity="0.2"></path><path d="M229.49,271.32h-48.49c-0.22356,0.00971 -0.43862,-0.08654 -0.58033,-0.25973c-0.1417,-0.17319 -0.19346,-0.40305 -0.13967,-0.62027l6.9,-36.44c0.10372,-0.48122 0.5095,-0.83831 1,-0.88h48.48c0.22324,-0.01078 0.43821,0.08569 0.57855,0.25964c0.14034,0.17394 0.18918,0.40445 0.13145,0.62036l-6.88,36.43c-0.09986,0.48515 -0.50654,0.8471 -1,0.89z" fill="#f77c3e"></path><path d="M229.49,271.32h-48.49c-0.22356,0.00971 -0.43862,-0.08654 -0.58033,-0.25973c-0.1417,-0.17319 -0.19346,-0.40305 -0.13967,-0.62027l6.9,-36.44c0.10372,-0.48122 0.5095,-0.83831 1,-0.88h48.48c0.22324,-0.01078 0.43821,0.08569 0.57855,0.25964c0.14034,0.17394 0.18918,0.40445 0.13145,0.62036l-6.88,36.43c-0.09986,0.48515 -0.50654,0.8471 -1,0.89z" fill="#ffffff" opacity="0.4"></path><path d="M228.49,271.32h-48.49c-0.22356,0.00971 -0.43862,-0.08654 -0.58033,-0.25973c-0.1417,-0.17319 -0.19346,-0.40305 -0.13967,-0.62027l6.9,-36.44c0.10372,-0.48122 0.5095,-0.83831 1,-0.88h48.48c0.22324,-0.01078 0.43821,0.08569 0.57855,0.25964c0.14034,0.17394 0.18918,0.40445 0.13145,0.62036l-6.88,36.43c-0.09986,0.48515 -0.50654,0.8471 -1,0.89z" fill="#263238"></path><path d="M227.85,269.08h-46.36l6.38,-33.71h46.35z" fill="#f77c3e"></path><path d="M147.05,285.63v-1.14l18.66,-3.77h36.51c1.3531,0 2.45,1.0969 2.45,2.45v0c0.00001,1.35472 -1.09529,2.45449 -2.45,2.46z" fill="#f77c3e"></path><path d="M204.67,283.18c0.00138,0.64786 -0.25391,1.26989 -0.71,1.73c-0.46278,0.45943 -1.0879,0.7181 -1.74,0.72h-55.17v-1.13l18.67,-3.78h36.5c0.65152,-0.00001 1.2762,0.25949 1.73596,0.72112c0.45975,0.46163 0.7167,1.08737 0.71404,1.73888z" fill="#ffffff" opacity="0.4"></path><path d="M204.67,283.18c0.00138,0.64786 -0.25391,1.26989 -0.71,1.73c-0.46278,0.45943 -1.0879,0.7181 -1.74,0.72h-22.17v-1.13l18.67,-3.78h3.5c0.65152,-0.00001 1.2762,0.25949 1.73596,0.72112c0.45975,0.46163 0.7167,1.08737 0.71404,1.73888z" fill="#ffffff" opacity="0.4"></path><path d="M218.01,416.42h5l8.97,-124.94h-6.63z" fill="#263238"></path><path d="M218.01,416.42h5l8.53,-118.74l0.44,-6h-6.63l-0.35,6z" fill="#ffffff" opacity="0.1"></path><path d="M225,297.38h6.54l0.44,-5.7h-6.63z" fill="#000000" opacity="0.2"></path><path d="M181.36,416.42h4.99l0.82,-124.94h-6.63z" fill="#263238"></path><path d="M180.54,291.68l0.13,20.16l0.68,104.58h5l0.68,-104.58l0.13,-20.16z" fill="#ffffff" opacity="0.1"></path><path d="M180.54,291.68l0.13,20.38h6.36l0.13,-20.38z" fill="#000000" opacity="0.2"></path><path d="M128.33,416.42h4.99l8.98,-124.94h-6.63z" fill="#263238"></path><path d="M128.32,416.42h5l8.54,-118.74l0.44,-6h-6.63l-0.36,6z" fill="#ffffff" opacity="0.1"></path><path d="M135.31,297.38h6.55l0.44,-5.7h-6.63z" fill="#000000" opacity="0.2"></path><path d="M275.15,416.42h4.99l-7.34,-124.94h-6.62z" fill="#263238"></path><path d="M266.18,291.68l0.44,6l8.53,118.74h4.99l-6.98,-118.74l-0.36,-6z" fill="#ffffff" opacity="0.1"></path><path d="M272.8,291.68h-6.62l0.44,5.7h6.54z" fill="#000000" opacity="0.2"></path><path transform="translate(408.47,582.95) rotate(180)" d="M132.58,288.35h143.31c1.19294,0 2.16,0.96706 2.16,2.16v4.1h-147.63v-4.1c0,-1.19294 0.96706,-2.16 2.16,-2.16z" fill="#f77c3e"></path><path transform="translate(408.47,582.95) rotate(180)" d="M132.58,288.35h143.31c1.19294,0 2.16,0.96706 2.16,2.16v4.1h-147.63v-4.1c0,-1.19294 0.96706,-2.16 2.16,-2.16z" fill="#ffffff" opacity="0.4"></path><rect x="-278.05" y="-291.47" transform="rotate(180)" width="147.64" height="3.13" fill="#000000" opacity="0.2"></rect><path d="M127.32,289.16h153.83c0.97202,0 1.76,-0.78798 1.76,-1.76v0c0,-0.97202 -0.78798,-1.76 -1.76,-1.76h-153.83c-0.97202,0 -1.76,0.78798 -1.76,1.76v0c0,0.97202 0.78798,1.76 1.76,1.76z" fill="#f77c3e"></path><path d="M127.32,289.16h153.83c0.97202,0 1.76,-0.78798 1.76,-1.76v0c0,-0.97202 -0.78798,-1.76 -1.76,-1.76h-153.83c-0.97202,0 -1.76,0.78798 -1.76,1.76v0c0,0.97202 0.78798,1.76 1.76,1.76z" fill="#ffffff" opacity="0.4"></path><path d="M190.44,254.26c-0.44447,-0.00404 -0.86426,-0.20499 -1.14615,-0.54866c-0.28189,-0.34367 -0.39684,-0.79466 -0.31385,-1.23134l0.62,-3.19c0.18011,-0.89694 0.96518,-1.5442 1.88,-1.55h26c0.44702,-0.00106 0.87023,0.20135 1.15,0.55c0.28807,0.33995 0.40254,0.79412 0.31,1.23l-0.62,3.19c-0.17225,0.8975 -0.95612,1.54724 -1.87,1.55z" fill="#ffffff" opacity="0.3"></path><path d="M216.45,253.76h-26c-0.29957,0.0049 -0.58555,-0.12477 -0.77925,-0.35334c-0.1937,-0.22857 -0.27472,-0.53195 -0.22075,-0.82666l0.63,-3.2c0.12528,-0.66284 0.70542,-1.1421 1.38,-1.14h26c0.29957,-0.0049 0.58555,0.12477 0.77925,0.35334c0.1937,0.22857 0.27472,0.53195 0.22075,0.82666l-0.62,3.2c-0.12962,0.66439 -0.71309,1.14292 -1.39,1.14z" fill="#ffffff"></path><ellipse cx="-94.61573" cy="302.67445" transform="rotate(-55.03)" rx="1.61" ry="1.28" fill="#263238"></ellipse><path d="M199.23,251c-0.14685,0.82155 -0.82825,1.44138 -1.66,1.51c-0.36339,-0.01121 -0.7005,-0.19214 -0.9107,-0.48877c-0.2102,-0.29664 -0.26917,-0.67466 -0.1593,-1.02123c0.15005,-0.81978 0.82971,-1.43803 1.66,-1.51c0.36505,0.00703 0.70508,0.18699 0.91618,0.48489c0.2111,0.29791 0.26819,0.67836 0.15382,1.02511z" fill="#263238"></path><path d="M203.3,251c-0.15005,0.81978 -0.82971,1.43803 -1.66,1.51c-0.36517,-0.00814 -0.70517,-0.1878 -0.91766,-0.48488c-0.21249,-0.29709 -0.27264,-0.67691 -0.16234,-1.02512c0.15423,-0.82135 0.83732,-1.43899 1.67,-1.51c0.36339,0.01121 0.7005,0.19214 0.9107,0.48877c0.2102,0.29664 0.26917,0.67466 0.1593,1.02123z" fill="#263238"></path><ellipse cx="-87.61596" cy="312.66954" transform="rotate(-55.03)" rx="1.61" ry="1.28" fill="#263238"></ellipse><path d="M211.43,251c-0.15423,0.82135 -0.83732,1.43899 -1.67,1.51c-0.36339,-0.01121 -0.7005,-0.19214 -0.9107,-0.48877c-0.2102,-0.29664 -0.26917,-0.67466 -0.1593,-1.02123c0.1532,-0.81803 0.83116,-1.43473 1.66,-1.51c0.36517,0.00814 0.70517,0.1878 0.91766,0.48488c0.21249,0.29709 0.27264,0.67691 0.16234,1.02512z" fill="#263238"></path><ellipse cx="-82.97289" cy="319.33593" transform="rotate(-55.03)" rx="1.61" ry="1.28" fill="#263238"></ellipse><path d="M220.08,254.26c-0.3404,0.00417 -0.66422,-0.1467 -0.88,-0.41c-0.23083,-0.27804 -0.31616,-0.64905 -0.23,-1l0.79,-4c0.14325,-0.67454 0.73064,-1.16265 1.42,-1.18h4c0.3404,-0.00417 0.66422,0.1467 0.88,0.41c0.23083,0.27804 0.31616,0.64905 0.23,1l-0.79,4c-0.14325,0.67454 -0.73064,1.16265 -1.42,1.18z" fill="#ffffff" opacity="0.3"></path><path d="M220.08,253.76h4c0.44078,-0.02255 0.81465,-0.3314 0.92,-0.76l0.79,-4c0.05081,-0.18976 0.00868,-0.39237 -0.11355,-0.54615c-0.12224,-0.15378 -0.31012,-0.24053 -0.50645,-0.23385h-4c-0.45039,0.02062 -0.83128,0.34008 -0.93,0.78l-0.79,4c-0.04392,0.1887 0.00289,0.38707 0.12653,0.53623c0.12364,0.14916 0.3099,0.23194 0.50347,0.22377z" fill="#263238"></path><path d="M222.11,252.75c-0.06124,0.00241 -0.12021,-0.02338 -0.16,-0.07c-0.07425,-0.11987 -0.04375,-0.27669 0.07,-0.36l1.59,-1.32l-1.06,-1.32c-0.07969,-0.11882 -0.04841,-0.2797 0.07,-0.36c0.0992,-0.09028 0.2508,-0.09028 0.35,0l1.2,1.5c0.07969,0.11882 0.04841,0.2797 -0.07,0.36l-1.79,1.5c-0.05638,0.0461 -0.12718,0.07088 -0.2,0.07z" fill="#f77c3e"></path><path d="M223.91,251.25h-2.7c-0.06297,0.00201 -0.1232,-0.02577 -0.16255,-0.07496c-0.03935,-0.04919 -0.05323,-0.11405 -0.03745,-0.17504c0.03167,-0.14176 0.15485,-0.24442 0.3,-0.25h2.69c0.06297,-0.00201 0.1232,0.02577 0.16255,0.07496c0.03935,0.04919 0.05323,0.11405 0.03745,0.17504c-0.03065,0.13835 -0.14864,0.24007 -0.29,0.25z" fill="#f77c3e"></path></g><g id="freepik--speech-bubble--inject-4"><rect x="-161.95" y="-190.2" transform="rotate(180)" width="29.8" height="29.8" rx="4.12" ry="0" fill="#f77c3e"></rect><path d="M144.72,189.08l2.33,10.02l2.33,-10.02z" fill="#f77c3e"></path><path d="M146.79,184.23c-5.15279,-3.0716 -8.39785,-8.54528 -8.62,-14.54v-0.32l8.87,-3.78l8.86,3.78v0.32c-0.20901,5.99596 -3.45293,11.47408 -8.61,14.54l-0.26,0.16z" fill="#ffffff" opacity="0.3"></path><path d="M147.05,166.14l8.37,3.56c-0.18578,5.82745 -3.34498,11.15317 -8.37,14.11z" fill="#ffffff" opacity="0.6"></path><path d="M147.05,166.14l-8.38,3.56c0.1879,5.82946 3.35114,11.15562 8.38,14.11z" fill="#ffffff" opacity="0.4"></path></g><g id="freepik--Character--inject-4"><g id="freepik--group--inject-4"><path d="M139,279.11l7,1.05c1.58937,-0.50516 3.22351,-0.85677 4.88,-1.05c1.79697,-0.14779 3.60303,-0.14779 5.4,0c0,0 3.17,1.19 3.17,4.22c0,0 -7.39,2 -10.22,0.79l-10.23,-0.79z" fill="#e4897b"></path><path d="M139,279.11l7,1.05c1.58937,-0.50516 3.22351,-0.85677 4.88,-1.05c1.79697,-0.14779 3.60303,-0.14779 5.4,0c0,0 3.17,1.19 3.17,4.22c0,0 -7.39,2 -10.22,0.79l-10.23,-0.79z" fill="#000000" opacity="0.2"></path><path d="M156.34,231.84c0.10889,1.43865 0.39093,2.85891 0.84,4.23c-0.74832,0.45991 -1.69168,0.45991 -2.44,0z" fill="#aa473d"></path><path d="M159.07,229.84c-0.27,0.65 -0.75,1.07 -1.08,0.93c-0.33,-0.14 -0.36,-0.76 -0.1,-1.41c0.26,-0.65 0.75,-1.06 1.08,-0.93c0.33,0.13 0.36,0.77 0.1,1.41z" fill="#263238"></path><path d="M160.71,227.6c-0.05868,0.0178 -0.12132,0.0178 -0.18,0c-1.0767,-0.6329 -2.38236,-0.74324 -3.55,-0.3c-0.17949,0.09113 -0.39887,0.01949 -0.49,-0.16c-0.09113,-0.17949 -0.01949,-0.39887 0.16,-0.49c1.38951,-0.56594 2.96451,-0.44365 4.25,0.33c0.08298,0.04972 0.14245,0.13073 0.16503,0.22479c0.02257,0.09406 0.00635,0.19325 -0.04503,0.27521c-0.0754,0.09123 -0.19282,0.13668 -0.31,0.12z" fill="#263238"></path><path d="M154.39,237.28c-0.23,0.28 -0.46,0.55 -0.71,0.8c-1.40032,1.45517 -3.21065,2.44928 -5.19,2.85c-0.50145,0.10165 -1.00933,0.16848 -1.52,0.2c-2.72354,0.17019 -5.37897,-0.89492 -7.23,-2.9c-0.82487,-0.89571 -1.45784,-1.95066 -1.86,-3.1c-1.79,-4.8 0,-8.58 2.59,-15.23c1.17078,-3.16948 3.89756,-5.50796 7.20846,-6.18195c3.3109,-0.67399 6.73488,0.4124 9.05154,2.87195c5.18,5.46 1.7,15.49 -2.34,20.69z" fill="#e4897b"></path><path d="M148.49,240.93c-0.50145,0.10165 -1.00933,0.16848 -1.52,0.2c-2.72354,0.17019 -5.37897,-0.89492 -7.23,-2.9c0.64249,-0.6461 1.36503,-1.20733 2.15,-1.67c2.57457,0.79145 4.86618,2.30877 6.6,4.37z" fill="#000000" opacity="0.2"></path><path d="M126.93,241.18c0.66,4.68 10.9,6.43 10.9,6.43c0,0 5,2.3 5.26,0.3c-2.09,-2.42 -2.32,-4.53 -1.6,-6.38c0.47767,-1.1285 1.17834,-2.1489 2.06,-3c0.46994,-0.48804 0.96742,-0.9488 1.49,-1.38l-3.13,-12.82c-2.25,4.9 -9.91,16.15 -14.98,16.85z" fill="#e4897b"></path><path d="M156.15,213c0,0 2.19,-0.27 3.87,3.81c1.41,3.43 -1.92,4.18 -1.77,7.83c0.15,3.65 -3.2,5.68 -3.2,5.68c0,0 -2.8,2.42 -5.19,1.11c0,0 -3.12,1.53 -3.94,4.2c-0.82,2.67 -5.65,-2.15 -10,-1.42c0,0 -2.94,-2.75 -2.72,-9.43c0.16631,-2.90061 0.87879,-5.74374 2.1,-8.38c1.16489,-2.81952 3.41305,-5.05326 6.24,-6.2c4.97,-2.26 13.68,-0.58 14.61,2.8z" fill="#263238"></path><path d="M149.26,229.42c-0.30609,1.34736 0.00967,2.76095 0.86,3.85c1.06,1.16 2.77,-0.31 3.46,-2.34c0.6,-1.81 0.81,-4.64 -0.75,-5c-1.56,-0.36 -3.24,1.54 -3.57,3.49z" fill="#e4897b"></path><path d="M150.36,245.05c-1.43333,4 -2.71333,7.83333 -3.84,11.5c-0.72,2.28 -1.38,4.51 -2,6.66c-0.50667,1.80667 -0.98,3.56 -1.42,5.26c-0.21,0.82 -0.42,1.63 -0.62,2.43c-1.1,4.41 -2,8.43 -2.69,12c-1.16541,5.57279 -2.02999,11.20427 -2.59,16.87l-39.2,-4.94c1.36,-6.74 2.42,-12.63 3.9,-19c0.82,-3.48 1.75,-7.1 3,-11.07c0.84,-2.85 1.82,-5.88 3,-9.17c3.94,-11.3 7.57,-14.43 7.57,-14.43c14.99,-2.4 34.89,3.89 34.89,3.89z" fill="#263238"></path><path d="M163.41,279.84l7,1.05c1.58937,-0.50516 3.22351,-0.85677 4.88,-1.05c1.80031,-0.14771 3.60969,-0.14771 5.41,0c0,0 3.16,1.19 3.16,4.22c0,0 -7.38,2 -10.22,0.79l-10.22,-0.79z" fill="#e4897b"></path><path d="M120.08,409.11l7.31,0.13l3.64,-16.85l-7.3,-0.13z" fill="#ebb376"></path><path d="M123.73,392.26l7.3,0.14l-2.08,9.63l-7.23,-0.48z" fill="#000000" opacity="0.2"></path><path d="M143.57,367.85c-2.7854,10.72364 -6.34473,21.2312 -10.65,31.44l-13.33,-1c0,0 5.47,-21.37 7.45,-40.95c1.23,-12.08 1.12,-22.08 -2.42,-22.85c-2.22,-0.49 -7.43,-0.48 -14.11,-0.32v-24.9c18.73,3.85 37.37,11.1 38.79,16.92c1.98,8.19 -1.48,25.53 -5.73,41.66z" fill="#f77c3e"></path><path d="M118.17,398.89l15.88,1.06l2.34,-6.87l-17.5,-0.81z" fill="#f77c3e"></path><path d="M118.17,398.89l15.88,1.06l2.34,-6.87l-17.5,-0.81z" fill="#ffffff" opacity="0.2"></path><path d="M128.49,408.88h0.15c0,0 0.17,0.05 0.19,0.07c0.02,0.02 0,0 0,0h0.06c0.6176,0.19551 1.25471,0.32294 1.9,0.38c0.48081,0.08936 0.97761,-0.00715 1.39,-0.27c0.26725,-0.23283 0.37295,-0.60084 0.27,-0.94c-0.03238,-0.22033 -0.1706,-0.41084 -0.37,-0.51c-0.69058,-0.11032 -1.398,0.02409 -2,0.38c0.43021,-0.45383 0.68536,-1.04563 0.72,-1.67c-0.06041,-0.30305 -0.31238,-0.53065 -0.62,-0.56c-0.28434,-0.04199 -0.57399,0.02596 -0.81,0.19c-0.77,0.66 -0.89,2.73 -0.89,2.85v0zM129.28,408.46l-0.15,0.08c-0.04737,-0.79018 0.16702,-1.57395 0.61,-2.23c0.09747,-0.09768 0.23228,-0.14869 0.37,-0.14h0.09c0.24,0 0.29,0.16 0.3,0.26c-0.15439,0.79943 -0.58653,1.51849 -1.22,2.03zM129.38,408.82c0.88,-0.49 2.13,-1 2.6,-0.81c0.09494,0.04962 0.15875,0.14346 0.17,0.25c0.06007,0.21421 -0.00124,0.44414 -0.16,0.6c-0.36,0.32 -1.32,0.3 -2.61,-0.04z" fill="#f77c3e"></path><path d="M128.32,408l-8.19,-0.51c-0.28408,-0.0292 -0.53855,0.17616 -0.57,0.46v0l-0.8,6.45c-0.04587,0.70564 0.48489,1.31667 1.19,1.37c2.86,0.13 4.23,0.05 7.83,0.25c3.19545,0.32871 6.41028,0.42897 9.62,0.3c3,-0.29 2.67,-3.3 1.36,-3.44c-3.13,-0.36 -7.26,-2.65 -9.22,-4.39c-0.33983,-0.29615 -0.76973,-0.46882 -1.22,-0.49z" fill="#263238"></path><path d="M143.57,367.85c-5,-3.15 -10.81,-6.86 -16.53,-10.53c1.23,-12.08 1.12,-22.08 -2.42,-22.85c-2.22,-0.49 -7.43,-0.48 -14.11,-0.32v-24.88c18.73,3.85 37.37,11.1 38.79,16.92c1.98,8.19 -1.48,25.53 -5.73,41.66z" fill="#000000" opacity="0.2"></path><path d="M162.81,409.11l7.31,0.13l3.64,-16.85l-7.3,-0.13z" fill="#ebb376"></path><path d="M166.46,392.26l7.3,0.14l-2.08,9.63l-7.23,-0.48z" fill="#000000" opacity="0.2"></path><path d="M136.27,306.83l1.18,-9.44l-38.17,-6.29c0,0 -12.49,24.74 -6.38,36.9c5.61,11.12 65.27,4.49 74.45,6.5c9.18,2.01 -5,63.81 -5,63.81l13.34,1c0,0 20.6,-55.6 16.37,-73.09c-1.88,-7.65 -33.33,-17.76 -55.79,-19.39z" fill="#f77c3e"></path><path d="M160.9,398.89l15.88,1.06l2.34,-6.87l-17.5,-0.81z" fill="#f77c3e"></path><path d="M160.9,398.89l15.88,1.06l2.34,-6.87l-17.5,-0.81z" fill="#ffffff" opacity="0.2"></path><path d="M171.22,408.88h0.15c0,0 0.17,0.05 0.19,0.07c0.02,0.02 0,0 0,0h0.06c0.6176,0.19551 1.25471,0.32294 1.9,0.38c0.48081,0.08936 0.97761,-0.00715 1.39,-0.27c0.26725,-0.23283 0.37295,-0.60084 0.27,-0.94c-0.03238,-0.22033 -0.1706,-0.41084 -0.37,-0.51c-0.69058,-0.11032 -1.398,0.02409 -2,0.38c0.43021,-0.45383 0.68536,-1.04563 0.72,-1.67c-0.06041,-0.30305 -0.31238,-0.53065 -0.62,-0.56c-0.28434,-0.04199 -0.57399,0.02596 -0.81,0.19c-0.77,0.66 -0.89,2.73 -0.89,2.85v0zM172.01,408.46l-0.15,0.08c-0.04737,-0.79018 0.16702,-1.57395 0.61,-2.23c0.09747,-0.09768 0.23228,-0.14869 0.37,-0.14h0.09c0.24,0 0.29,0.16 0.3,0.26c-0.15283,0.80245 -0.58945,1.52306 -1.23,2.03zM172.11,408.82c0.88,-0.49 2.13,-1 2.6,-0.81c0.09494,0.04962 0.15875,0.14346 0.17,0.25c0.06007,0.21421 -0.00124,0.44414 -0.16,0.6c-0.36,0.32 -1.32,0.3 -2.61,-0.04z" fill="#f77c3e"></path><path d="M171.05,408l-8.19,-0.51c-0.28408,-0.0292 -0.53855,0.17616 -0.57,0.46v0l-0.8,6.45c-0.04587,0.70564 0.48489,1.31667 1.19,1.37c2.86,0.13 4.23,0.05 7.83,0.25c3.19545,0.32871 6.41028,0.42897 9.62,0.3c3.05,-0.29 2.68,-3.3 1.36,-3.44c-3.13,-0.36 -7.26,-2.65 -9.22,-4.39c-0.33983,-0.29615 -0.76973,-0.46882 -1.22,-0.49z" fill="#263238"></path><path d="M97.88,295.4l17.68,2.32l0.58,-2.61l-17.72,-2.58z" fill="#000000"></path><path d="M117.61,295.13l-0.22,2.59l16.35,2.25v-2.57z" fill="#000000"></path><path d="M134.75,297.55v2.42l2.38,0.31v-2.34z" fill="#000000"></path><path d="M146.52,256.55c-0.72,2.28 -1.38,4.51 -2,6.66c-0.50667,1.80667 -0.98,3.56 -1.42,5.26c-1.23,-6.7 1,-14.7 1,-14.7z" fill="#000000" opacity="0.2"></path><path d="M150.36,245c3.19,0.65 4.24,25.44 4.38,28.08c0.14,2.64 15.66,7.77 15.66,7.77v3.61c0,0 -16.64,-1.16 -20.53,-2.75c-3.89,-1.59 -4.87,-24.55 -4.87,-24.55z" fill="#e4897b"></path><path d="M150.36,245c2.93,0.91 4.38,17.26 4.38,17.26l-9.06,3.74l-2.25,-9.09c0,0 -0.64,-1.85 0.62,-5.75c1.83,-5.69 6.31,-6.16 6.31,-6.16z" fill="#263238"></path></g><path d="M82.78,326.52h72.22c4.36857,0 7.91,3.54143 7.91,7.91v4.23h-88.04v-4.23c0,-4.36857 3.54143,-7.91 7.91,-7.91z" fill="#f77c3e"></path><path d="M106.27,296.45h48.49c1.18397,-0.00034 2.30329,0.53992 3.03958,1.4671c0.73629,0.92718 1.00895,2.13979 0.74042,3.2929l-8.67,37.45h-2l7.38,-32.82c0.26194,-1.14924 -0.01416,-2.35521 -0.75002,-3.27602c-0.73586,-0.9208 -1.85126,-1.45604 -3.02998,-1.45398h-44.21z" fill="#263238"></path><path d="M124.63,340v31.65c0,1.0162 -0.8238,1.84 -1.84,1.84h-7.79c-1.0162,0 -1.84,-0.8238 -1.84,-1.84v-31.65z" fill="#263238"></path><path d="M81.79,413.06c0,-1.85568 -1.50432,-3.36 -3.36,-3.36c-1.85568,0 -3.36,1.50432 -3.36,3.36c0,1.85568 1.50432,3.36 3.36,3.36c1.85568,0 3.36,-1.50432 3.36,-3.36z" fill="#263238"></path><path d="M80.11,413.06c0,-0.92784 -0.75216,-1.68 -1.68,-1.68c-0.92784,0 -1.68,0.75216 -1.68,1.68c0,0.92784 0.75216,1.68 1.68,1.68c0.92557,-0.00546 1.67454,-0.75443 1.68,-1.68z" fill="#ffffff" opacity="0.2"></path><path d="M162.74,413.06c0.00404,-1.36485 -0.81554,-2.59737 -2.07573,-3.12155c-1.26019,-0.52418 -2.71211,-0.23649 -3.6772,0.72861c-0.9651,0.9651 -1.25279,2.41702 -0.72861,3.6772c0.52418,1.26019 1.7567,2.07977 3.12155,2.07573c1.8534,-0.00549 3.35451,-1.5066 3.36,-3.36z" fill="#263238"></path><path d="M161.06,413.06c0,-0.92784 -0.75216,-1.68 -1.68,-1.68c-0.92784,0 -1.68,0.75216 -1.68,1.68c0,0.92784 0.75216,1.68 1.68,1.68c0.92557,-0.00546 1.67454,-0.75443 1.68,-1.68z" fill="#ffffff" opacity="0.2"></path><path d="M121.68,398.3v-36.18h-5.56v36.18c-21.66,0.56 -34.83,8.13 -37.46,9.79c-0.31631,0.18716 -0.50447,0.53275 -0.49,0.9v3c-0.00267,0.28286 0.10783,0.55505 0.30691,0.75601c0.19908,0.20096 0.47022,0.31401 0.75309,0.31399v0c0.38093,-0.0034 0.73132,-0.20906 0.92,-0.54l1.29,-2.26c11.22203,-3.57852 22.90342,-5.51194 34.68,-5.74v6c-0.00001,0.36509 0.1457,0.71507 0.40479,0.97229c0.25909,0.25721 0.61013,0.40038 0.97521,0.39771h2.81c0.75663,0 1.37,-0.61337 1.37,-1.37v-6c11.77992,0.22737 23.4647,2.1608 34.69,5.74l1.28,2.26c0.19046,0.33402 0.54549,0.54017 0.93,0.54v0c0.58704,-0.00549 1.06003,-0.48294 1.06,-1.07v-3c0.01447,-0.36725 -0.17369,-0.71284 -0.49,-0.9c-2.64,-1.66 -15.8,-9.23 -37.47,-9.79z" fill="#263238"></path><rect x="117.08" y="409.69" width="3.65" height="6.73" fill="#263238"></rect><rect x="113.19" y="339.97" width="11.44" height="13.15" fill="#000000" opacity="0.2"></rect><path d="M165.35,336.71v3.78c0.00001,0.51361 -0.2047,1.00603 -0.56881,1.36826c-0.36411,0.36223 -0.85759,0.5644 -1.37119,0.56174h-89c-0.51268,0.00268 -1.00514,-0.1998 -1.36767,-0.56233c-0.36253,-0.36253 -0.56501,-0.85499 -0.56233,-1.36767v-3.78c0,-1.06591 0.86409,-1.93 1.93,-1.93h89c1.06754,-0.00001 1.9345,0.86247 1.94,1.93z" fill="#263238"></path><path d="M124.4,338.66h-51.93c0,0 -16.47,-27.44 -16.47,-72.78v-16.65c0.00552,-6.84443 5.55557,-12.39 12.4,-12.39h22c6.69335,-0.00332 12.17931,5.30996 12.39,12c0.63,23.4 4.07,73.99 21.61,89.82z" fill="#263238"></path><path d="M113,338.66h-38.19c-1.4722,0.00664 -2.824,-0.81216 -3.5,-2.12c-3.76,-7.24 -15.31,-32.67 -15.31,-70.66v-16.65c0,-6.84281 5.54719,-12.39 12.39,-12.39h19c6.69335,-0.00332 12.17931,5.30996 12.39,12c0.57,20.87 3.37,63.48 16.47,83.61c0.80614,1.21547 0.88681,2.77338 0.21052,4.06562c-0.67629,1.29224 -2.00233,2.11394 -3.46052,2.14438z" fill="#ffffff" opacity="0.2"></path><path d="M165.35,336.71v3.78c0,1.06591 -0.86409,1.93 -1.93,1.93h-39.89c-0.69129,0.00266 -1.35519,-0.27009 -1.84495,-0.75798c-0.48976,-0.48788 -0.76506,-1.15072 -0.76505,-1.84202v-2.43c0,-1.44146 1.16854,-2.61 2.61,-2.61h39.88c1.06754,-0.00001 1.9345,0.86247 1.94,1.93z" fill="#000000" opacity="0.2"></path><path d="M72.45,235.37l3.3,-4.32c0,0 14.09,0.64 14.43,5.79c0.34,5.15 -17.73,-1.47 -17.73,-1.47z" fill="#f77c3e"></path><path d="M63.19,248.3c0,0 0.86,22.9 0,82c0,2 -7.46,1.92 -8,0c-1.79,-6.73 0,-60.47 0,-60.47" fill="#f77c3e"></path><path d="M55.36,330.6l7.59,0.26v3.79l-7.59,-0.39z" fill="#f77c3e"></path><path d="M63.19,248.3c0,0 0.86,22.9 0,82c0,2 -7.46,1.92 -8,0c-1.79,-6.73 0,-60.47 0,-60.47" fill="#ffffff" opacity="0.2"></path><path d="M51.61,318.22c-0.41,-10.9 -1.9,-61 4.36,-77.6c0,0 5.89,-7.48 25.82,-7.48c19.93,0 25.93,14.15 25.93,14.15c0,0 0.86,22.89 0,82c0,2 -7.46,1.93 -8,0c-1.79,-6.72 0,-60.47 0,-60.47l-4,48.9c-0.02951,0.33139 -0.19416,0.636 -0.45524,0.84222c-0.26108,0.20622 -0.59555,0.29583 -0.92476,0.24778c-6.29,-1 -34,-4.89 -41.33,0.11c-0.27017,0.17381 -0.61197,0.19229 -0.89931,0.04862c-0.28734,-0.14367 -0.47763,-0.4282 -0.50069,-0.74862z" fill="#f77c3e"></path><path d="M99.89,329.59l7.59,0.26v3.79l-7.59,-0.39z" fill="#f77c3e"></path><path d="M94.75,318.86l-0.6,4c0,0 -30.93,-6.74 -40.95,0.44l-0.6,-4.43c0,0 7.74,-7.14 42.15,-0.01z" fill="#f77c3e"></path><path d="M51.61,318.22c-0.41,-10.9 -1.9,-61 4.36,-77.6c0,0 5.89,-7.48 25.82,-7.48c19.93,0 25.93,14.15 25.93,14.15c0,0 0.86,22.89 0,82c0,2 -7.46,1.93 -8,0c-1.79,-6.72 0,-60.47 0,-60.47l-4,48.9c-0.02951,0.33139 -0.19416,0.636 -0.45524,0.84222c-0.26108,0.20622 -0.59555,0.29583 -0.92476,0.24778c-6.29,-1 -34,-4.89 -41.33,0.11c-0.27017,0.17381 -0.61197,0.19229 -0.89931,0.04862c-0.28734,-0.14367 -0.47763,-0.4282 -0.50069,-0.74862z" fill="#ffffff" opacity="0.4"></path><path d="M99.75,268.82c0,0 0.44,-15.52 8,-21.53c-0.03,0 -9.45,4.05 -8,21.53z" fill="#000000" opacity="0.2"></path><path d="M77.07,234.93c0,0 -9.1,5 -10.55,73.13c0,0 -3.96,-68.73 10.55,-73.13z" fill="#000000" opacity="0.2"></path></g></g></g></svg>